<svg width="40" height="40" viewBox="0 0 40 40" fill="none" xmlns="http://www.w3.org/2000/svg">
<rect width="40" height="40" rx="6" fill="#101828"/>
<g clip-path="url(#clip0_18_6132)">
<path d="M19.9999 22.5C21.3806 22.5 22.4999 21.3807 22.4999 20C22.4999 18.6193 21.3806 17.5 19.9999 17.5C18.6192 17.5 17.4999 18.6193 17.4999 20C17.4999 21.3807 18.6192 22.5 19.9999 22.5Z" stroke="#CCD6EB" stroke-width="1.66667" stroke-linecap="round" stroke-linejoin="round"/>
<path d="M26.1666 22.5C26.0557 22.7513 26.0226 23.0301 26.0716 23.3005C26.1206 23.5708 26.2495 23.8202 26.4416 24.0166L26.4916 24.0666C26.6465 24.2214 26.7695 24.4052 26.8533 24.6076C26.9372 24.8099 26.9804 25.0268 26.9804 25.2458C26.9804 25.4648 26.9372 25.6817 26.8533 25.884C26.7695 26.0864 26.6465 26.2702 26.4916 26.425C26.3368 26.5799 26.153 26.7029 25.9507 26.7867C25.7483 26.8706 25.5314 26.9138 25.3124 26.9138C25.0934 26.9138 24.8765 26.8706 24.6742 26.7867C24.4719 26.7029 24.288 26.5799 24.1332 26.425L24.0833 26.375C23.8869 26.1829 23.6374 26.054 23.3671 26.005C23.0967 25.956 22.8179 25.989 22.5666 26.1C22.3201 26.2056 22.1099 26.381 21.9618 26.6046C21.8138 26.8282 21.7343 27.0902 21.7333 27.3583V27.5C21.7333 27.942 21.5577 28.3659 21.2451 28.6785C20.9325 28.991 20.5086 29.1666 20.0666 29.1666C19.6246 29.1666 19.2006 28.991 18.8881 28.6785C18.5755 28.3659 18.3999 27.942 18.3999 27.5V27.425C18.3935 27.1491 18.3042 26.8816 18.1437 26.6572C17.9832 26.4328 17.7589 26.2619 17.4999 26.1666C17.2486 26.0557 16.9698 26.0226 16.6994 26.0716C16.4291 26.1207 16.1797 26.2495 15.9833 26.4416L15.9333 26.4916C15.7785 26.6466 15.5946 26.7695 15.3923 26.8534C15.19 26.9373 14.9731 26.9805 14.7541 26.9805C14.5351 26.9805 14.3182 26.9373 14.1159 26.8534C13.9135 26.7695 13.7297 26.6466 13.5749 26.4916C13.42 26.3369 13.297 26.153 13.2132 25.9507C13.1293 25.7484 13.0861 25.5315 13.0861 25.3125C13.0861 25.0935 13.1293 24.8766 13.2132 24.6742C13.297 24.4719 13.42 24.2881 13.5749 24.1333L13.6249 24.0833C13.817 23.8869 13.9459 23.6375 13.9949 23.3671C14.0439 23.0968 14.0108 22.818 13.8999 22.5666C13.7943 22.3202 13.6189 22.11 13.3953 21.9619C13.1717 21.8138 12.9097 21.7344 12.6416 21.7333H12.4999C12.0579 21.7333 11.634 21.5577 11.3214 21.2452C11.0088 20.9326 10.8333 20.5087 10.8333 20.0666C10.8333 19.6246 11.0088 19.2007 11.3214 18.8881C11.634 18.5756 12.0579 18.4 12.4999 18.4H12.5749C12.8507 18.3935 13.1183 18.3042 13.3427 18.1437C13.5671 17.9832 13.738 17.7589 13.8333 17.5C13.9442 17.2486 13.9773 16.9698 13.9283 16.6995C13.8792 16.4292 13.7504 16.1797 13.5583 15.9833L13.5083 15.9333C13.3533 15.7785 13.2304 15.5947 13.1465 15.3924C13.0626 15.19 13.0194 14.9732 13.0194 14.7541C13.0194 14.5351 13.0626 14.3182 13.1465 14.1159C13.2304 13.9136 13.3533 13.7298 13.5083 13.575C13.663 13.42 13.8469 13.2971 14.0492 13.2132C14.2515 13.1293 14.4684 13.0862 14.6874 13.0862C14.9064 13.0862 15.1233 13.1293 15.3257 13.2132C15.528 13.2971 15.7118 13.42 15.8666 13.575L15.9166 13.625C16.113 13.8171 16.3624 13.946 16.6328 13.995C16.9031 14.044 17.1819 14.0109 17.4333 13.9H17.4999C17.7464 13.7943 17.9566 13.6189 18.1047 13.3954C18.2527 13.1718 18.3322 12.9098 18.3333 12.6416V12.5C18.3333 12.058 18.5088 11.634 18.8214 11.3215C19.134 11.0089 19.5579 10.8333 19.9999 10.8333C20.4419 10.8333 20.8659 11.0089 21.1784 11.3215C21.491 11.634 21.6666 12.058 21.6666 12.5V12.575C21.6677 12.8431 21.7471 13.1051 21.8952 13.3287C22.0432 13.5523 22.2534 13.7277 22.4999 13.8333C22.7513 13.9442 23.0301 13.9773 23.3004 13.9283C23.5707 13.8793 23.8202 13.7504 24.0166 13.5583L24.0666 13.5083C24.2214 13.3534 24.4052 13.2304 24.6075 13.1465C24.8098 13.0627 25.0267 13.0195 25.2458 13.0195C25.4648 13.0195 25.6817 13.0627 25.884 13.1465C26.0863 13.2304 26.2701 13.3534 26.4249 13.5083C26.5799 13.6631 26.7028 13.8469 26.7867 14.0492C26.8706 14.2516 26.9137 14.4685 26.9137 14.6875C26.9137 14.9065 26.8706 15.1234 26.7867 15.3257C26.7028 15.528 26.5799 15.7119 26.4249 15.8666L26.3749 15.9166C26.1828 16.113 26.0539 16.3625 26.0049 16.6328C25.9559 16.9032 25.989 17.182 26.0999 17.4333V17.5C26.2056 17.7465 26.381 17.9567 26.6045 18.1047C26.8281 18.2528 27.0901 18.3322 27.3583 18.3333H27.4999C27.9419 18.3333 28.3659 18.5089 28.6784 18.8215C28.991 19.134 29.1666 19.558 29.1666 20C29.1666 20.442 28.991 20.8659 28.6784 21.1785C28.3659 21.4911 27.9419 21.6666 27.4999 21.6666H27.4249C27.1568 21.6677 26.8948 21.7472 26.6712 21.8952C26.4476 22.0433 26.2722 22.2535 26.1666 22.5Z" stroke="#CCD6EB" stroke-width="1.66667" stroke-linecap="round" stroke-linejoin="round"/>
</g>
<defs>
<clipPath id="clip0_18_6132">
<rect width="20" height="20" fill="white" transform="translate(10 10)"/>
</clipPath>
</defs>
</svg>
